<svg aria-hidden="true" style="position: absolute; width: 0; height: 0; overflow: hidden;" version="1.1" xmlns="http://www.w3.org/2000/svg" xmlns:xlink="http://www.w3.org/1999/xlink">
<defs>
<symbol id="icon-twitter" viewBox="0 0 32 32">
<path stroke-linejoin="round" stroke-linecap="round" stroke-miterlimit="4" stroke-width="2.6667" d="M30.667 4c-1.277 0.901-2.691 1.589-4.187 2.040-0.803-0.923-1.87-1.578-3.057-1.875s-2.437-0.222-3.58 0.214c-1.143 0.436-2.125 1.213-2.812 2.226s-1.047 2.212-1.031 3.435v1.333c-2.343 0.061-4.665-0.459-6.759-1.513s-4.561-3.563-5.908-5.481c0 0-4.667 12.954 7.333 18.287-2.746 1.864-6.017 2.799-9.333 2.667 12 6.667 26.667 0 26.667-15.333-0.001-0.371-0.037-0.742-0.107-1.107 1.361-1.342 2.321-3.036 2.773-4.893z"></path>
</symbol>
<symbol id="icon-x-close" viewBox="0 0 32 32">
<path stroke-linejoin="round" stroke-linecap="round" stroke-miterlimit="4" stroke-width="2.2857" d="M24 8l-16 16"></path>
<path stroke-linejoin="round" stroke-linecap="round" stroke-miterlimit="4" stroke-width="2.2857" d="M8 8l16 16"></path>
</symbol>
<symbol id="icon-instagram" viewBox="0 0 32 32">
<path stroke-linejoin="round" stroke-linecap="round" stroke-miterlimit="4" stroke-width="2.6667" d="M22.667 2.667h-13.333c-3.682 0-6.667 2.985-6.667 6.667v13.333c0 3.682 2.985 6.667 6.667 6.667h13.333c3.682 0 6.667-2.985 6.667-6.667v-13.333c0-3.682-2.985-6.667-6.667-6.667z"></path>
<path stroke-linejoin="round" stroke-linecap="round" stroke-miterlimit="4" stroke-width="2.6667" d="M21.334 15.16c0.165 1.11-0.025 2.243-0.542 3.239s-1.334 1.803-2.336 2.307c-1.002 0.504-2.138 0.68-3.245 0.502s-2.131-0.701-2.924-1.494-1.316-1.816-1.494-2.924c-0.178-1.108-0.003-2.243 0.502-3.245s1.312-1.819 2.308-2.336 2.129-0.706 3.239-0.542c1.132 0.168 2.18 0.695 2.989 1.504s1.337 1.857 1.504 2.989z"></path>
<path stroke-linejoin="round" stroke-linecap="round" stroke-miterlimit="4" stroke-width="2.6667" d="M23.333 8.667h0.013"></path>
</symbol>
<symbol id="icon-la_utensil-spoon" viewBox="0 0 32 32">
<path fill="#fd9222" style="fill: var(--color1, #fd9222)" d="M15.451 14.106c-0.783-0.95-1.177-2.116-1.177-3.282 0-4.324 5.181-8.642 10.362-8.642 2.86 0 5.181 2.321 5.181 5.182 0 5.182-4.317 10.364-8.646 10.364-1.166 0-2.332-0.394-3.281-1.177l-12.758 12.761c-0.675 0.675-1.77 0.675-2.445 0s-0.675-1.771 0-2.445l12.764-12.761z"></path>
</symbol>
<symbol id="icon-logo-desk" viewBox="0 0 285 32">
<path fill="#111" style="fill: var(--color2, #111)" d="M7.885 24.288c-0.912 0-1.8-0.088-2.664-0.264-0.848-0.16-1.624-0.384-2.328-0.672-0.688-0.288-1.272-0.6-1.752-0.936l1.584-3c0.528 0.368 1.088 0.688 1.68 0.96 0.608 0.256 1.24 0.456 1.896 0.6 0.656 0.128 1.312 0.192 1.968 0.192 0.72 0 1.336-0.080 1.848-0.24 0.528-0.16 0.928-0.384 1.2-0.672 0.288-0.288 0.432-0.64 0.432-1.056 0-0.384-0.152-0.696-0.456-0.936s-0.704-0.44-1.2-0.6c-0.48-0.176-1.016-0.344-1.608-0.504s-1.192-0.344-1.8-0.552c-0.592-0.224-1.136-0.496-1.632-0.816-0.48-0.336-0.872-0.76-1.176-1.272s-0.456-1.152-0.456-1.92c0-1.152 0.312-2.152 0.936-3 0.64-0.848 1.536-1.504 2.688-1.968 1.152-0.48 2.504-0.72 4.056-0.72 1.136 0 2.208 0.128 3.216 0.384 1.008 0.24 1.872 0.592 2.592 1.056l-1.464 2.976c-0.64-0.432-1.352-0.752-2.136-0.96-0.784-0.224-1.592-0.336-2.424-0.336-0.752 0-1.4 0.088-1.944 0.264-0.528 0.176-0.936 0.424-1.224 0.744-0.272 0.304-0.408 0.656-0.408 1.056s0.144 0.728 0.432 0.984c0.304 0.24 0.704 0.448 1.2 0.624 0.496 0.16 1.040 0.32 1.632 0.48s1.184 0.344 1.776 0.552c0.592 0.208 1.136 0.472 1.632 0.792s0.896 0.728 1.2 1.224c0.304 0.48 0.456 1.088 0.456 1.824 0 1.152-0.32 2.16-0.96 3.024-0.64 0.848-1.544 1.512-2.712 1.992-1.152 0.464-2.512 0.696-4.080 0.696zM16.614 24l3.36-16.8h3.912l-3.36 16.8h-3.912zM23.769 24l3.36-16.8h3.168l4.776 11.904-1.68-0.024 9.312-11.88h3.336l-3.336 16.8h-3.648l2.232-11.256h0.744l-7.416 9.48h-1.728l-3.96-9.504 0.72 0.072-2.232 11.208h-3.648zM45.971 24l3.36-16.8h6.792c2.096 0 3.712 0.464 4.848 1.392 1.152 0.912 1.728 2.192 1.728 3.84 0 1.408-0.328 2.64-0.984 3.696-0.656 1.040-1.6 1.84-2.832 2.4-1.216 0.56-2.664 0.84-4.344 0.84h-5.448l2.064-1.776-1.272 6.408h-3.912zM51.059 18.048l-1.368-1.848h5.016c1.28 0 2.272-0.288 2.976-0.864 0.72-0.592 1.080-1.448 1.080-2.568 0-0.816-0.272-1.416-0.816-1.8-0.544-0.4-1.312-0.6-2.304-0.6h-4.728l2.064-1.896-1.92 9.576zM62.595 24l3.36-16.8h3.912l-2.736 13.632h8.424l-0.648 3.168h-12.312zM78.801 24l1.368-6.912 0.432 2.448-4.944-12.336h3.888l3.768 9.432-2.352 0.024 7.608-9.456h4.008l-9.84 12.36 1.32-2.472-1.368 6.912h-3.888zM105.536 24.288c-1.296 0-2.504-0.208-3.624-0.624-1.104-0.432-2.064-1.040-2.88-1.824s-1.456-1.704-1.92-2.76c-0.448-1.056-0.672-2.216-0.672-3.48s0.224-2.424 0.672-3.48c0.464-1.056 1.104-1.976 1.92-2.76 0.832-0.784 1.8-1.384 2.904-1.8 1.104-0.432 2.312-0.648 3.624-0.648 1.456 0 2.768 0.256 3.936 0.768 1.184 0.496 2.176 1.232 2.976 2.208l-2.496 2.304c-0.576-0.656-1.216-1.144-1.92-1.464-0.704-0.336-1.472-0.504-2.304-0.504-0.784 0-1.504 0.128-2.16 0.384s-1.224 0.624-1.704 1.104c-0.48 0.48-0.856 1.048-1.128 1.704-0.256 0.656-0.384 1.384-0.384 2.184s0.128 1.528 0.384 2.184c0.272 0.656 0.648 1.224 1.128 1.704s1.048 0.848 1.704 1.104c0.656 0.256 1.376 0.384 2.16 0.384 0.832 0 1.6-0.16 2.304-0.48 0.704-0.336 1.344-0.84 1.92-1.512l2.496 2.304c-0.8 0.976-1.792 1.72-2.976 2.232-1.168 0.512-2.488 0.768-3.96 0.768zM125.898 7.2h3.888v16.8h-3.888v-16.8zM118.266 24h-3.888v-16.8h3.888v16.8zM126.186 17.112h-8.208v-3.288h8.208v3.288zM141.2 24.288c-1.328 0-2.56-0.216-3.696-0.648-1.12-0.432-2.096-1.040-2.928-1.824-0.816-0.784-1.455-1.704-1.919-2.76-0.448-1.056-0.672-2.208-0.672-3.456s0.224-2.4 0.672-3.456c0.464-1.056 1.111-1.976 1.943-2.76s1.808-1.392 2.928-1.824c1.12-0.432 2.336-0.648 3.648-0.648 1.328 0 2.544 0.216 3.648 0.648 1.12 0.432 2.088 1.040 2.904 1.824 0.832 0.784 1.48 1.704 1.944 2.76 0.464 1.040 0.696 2.192 0.696 3.456 0 1.248-0.232 2.408-0.696 3.48-0.464 1.056-1.112 1.976-1.944 2.76-0.816 0.768-1.784 1.368-2.904 1.8-1.104 0.432-2.312 0.648-3.624 0.648zM141.176 20.976c0.752 0 1.44-0.128 2.064-0.384 0.64-0.256 1.2-0.624 1.68-1.104s0.848-1.048 1.104-1.704c0.272-0.656 0.408-1.384 0.408-2.184s-0.136-1.528-0.408-2.184c-0.256-0.656-0.624-1.224-1.104-1.704-0.464-0.48-1.016-0.848-1.656-1.104s-1.336-0.384-2.088-0.384c-0.752 0-1.448 0.128-2.088 0.384-0.624 0.256-1.176 0.624-1.656 1.104s-0.856 1.048-1.128 1.704c-0.256 0.656-0.384 1.384-0.384 2.184 0 0.784 0.128 1.512 0.384 2.184 0.272 0.656 0.64 1.224 1.104 1.704 0.48 0.48 1.040 0.848 1.68 1.104s1.336 0.384 2.088 0.384zM160.611 24.288c-1.296 0-2.504-0.208-3.624-0.624-1.104-0.432-2.064-1.040-2.88-1.824s-1.456-1.704-1.92-2.76c-0.448-1.056-0.672-2.216-0.672-3.48s0.224-2.424 0.672-3.48c0.464-1.056 1.104-1.976 1.92-2.76 0.832-0.784 1.8-1.384 2.904-1.8 1.104-0.432 2.312-0.648 3.624-0.648 1.456 0 2.768 0.256 3.936 0.768 1.184 0.496 2.176 1.232 2.976 2.208l-2.496 2.304c-0.576-0.656-1.216-1.144-1.92-1.464-0.704-0.336-1.472-0.504-2.304-0.504-0.784 0-1.504 0.128-2.16 0.384s-1.224 0.624-1.704 1.104c-0.48 0.48-0.856 1.048-1.128 1.704-0.256 0.656-0.384 1.384-0.384 2.184s0.128 1.528 0.384 2.184c0.272 0.656 0.648 1.224 1.128 1.704s1.048 0.848 1.704 1.104c0.656 0.256 1.376 0.384 2.16 0.384 0.832 0 1.6-0.16 2.304-0.48 0.704-0.336 1.344-0.84 1.92-1.512l2.496 2.304c-0.8 0.976-1.792 1.72-2.976 2.232-1.168 0.512-2.488 0.768-3.96 0.768zM177.26 24.288c-1.328 0-2.56-0.216-3.696-0.648-1.12-0.432-2.096-1.040-2.928-1.824-0.816-0.784-1.456-1.704-1.92-2.76-0.448-1.056-0.672-2.208-0.672-3.456s0.224-2.4 0.672-3.456c0.464-1.056 1.112-1.976 1.944-2.76s1.808-1.392 2.928-1.824c1.12-0.432 2.336-0.648 3.648-0.648 1.328 0 2.544 0.216 3.648 0.648 1.12 0.432 2.088 1.040 2.904 1.824 0.832 0.784 1.48 1.704 1.944 2.76 0.464 1.040 0.696 2.192 0.696 3.456 0 1.248-0.232 2.408-0.696 3.48-0.464 1.056-1.112 1.976-1.944 2.76-0.816 0.768-1.784 1.368-2.904 1.8-1.104 0.432-2.312 0.648-3.624 0.648zM177.236 20.976c0.752 0 1.44-0.128 2.064-0.384 0.64-0.256 1.2-0.624 1.68-1.104s0.848-1.048 1.104-1.704c0.272-0.656 0.408-1.384 0.408-2.184s-0.136-1.528-0.408-2.184c-0.256-0.656-0.624-1.224-1.104-1.704-0.464-0.48-1.016-0.848-1.656-1.104s-1.336-0.384-2.088-0.384c-0.752 0-1.448 0.128-2.088 0.384-0.624 0.256-1.176 0.624-1.656 1.104s-0.856 1.048-1.128 1.704c-0.256 0.656-0.384 1.384-0.384 2.184 0 0.784 0.128 1.512 0.384 2.184 0.272 0.656 0.64 1.224 1.104 1.704 0.48 0.48 1.040 0.848 1.68 1.104s1.336 0.384 2.088 0.384zM188.631 24v-16.8h3.888v13.632h8.424v3.168h-12.312zM200.281 24l7.488-16.8h3.84l7.512 16.8h-4.080l-6.144-14.832h1.536l-6.168 14.832h-3.984zM204.025 20.4l1.032-2.952h8.64l1.056 2.952h-10.728zM222.78 24v-13.632h-5.376v-3.168h14.64v3.168h-5.376v13.632h-3.888zM236.992 13.968h8.088v3.024h-8.088v-3.024zM237.28 20.88h9.144v3.12h-13.008v-16.8h12.696v3.12h-8.832v10.56z"></path>
<path fill="#fcf1e0" style="fill: var(--color3, #fcf1e0)" d="M257.277 20.076l10.777-17.424 0.64-0.674 8.235 5.491 0.057 3.314 2.009 3.28-8.88 14.077-12.839-8.063z"></path>
<path fill="none" stroke="#fd9222" style="stroke: var(--color1, #fd9222)" stroke-linejoin="round" stroke-linecap="round" stroke-miterlimit="4" stroke-width="2.6667" d="M274.968 23.88l-14.185-8.864M264.695 8.599l14.185 8.864M263.963 25.864l11.736-19.25M280.509 14.789c-3.040-1.899-4.233-3.384-2.277-6.592l-9.625-6.015-11.736 19.25 14.185 8.864 9.453-15.507z"></path>
</symbol>
<symbol id="icon-logo-movil" viewBox="0 0 259 32">
<path fill="#111" style="fill: var(--color2, #111)" d="M7.348 23.875c-0.811 0-1.6-0.078-2.368-0.235-0.754-0.142-1.444-0.341-2.069-0.597-0.612-0.256-1.131-0.533-1.557-0.832l1.408-2.667c0.469 0.327 0.967 0.611 1.493 0.853 0.54 0.227 1.102 0.405 1.685 0.533 0.583 0.114 1.166 0.171 1.749 0.171 0.64 0 1.188-0.071 1.643-0.213 0.469-0.142 0.825-0.341 1.067-0.597 0.256-0.256 0.384-0.569 0.384-0.939 0-0.341-0.135-0.619-0.405-0.832s-0.626-0.391-1.067-0.533c-0.427-0.157-0.903-0.306-1.429-0.448s-1.060-0.306-1.6-0.491c-0.526-0.199-1.010-0.441-1.451-0.725-0.427-0.299-0.775-0.675-1.045-1.131s-0.405-1.024-0.405-1.707c0-1.024 0.277-1.913 0.832-2.667 0.569-0.754 1.365-1.337 2.389-1.749 1.024-0.427 2.226-0.64 3.605-0.64 1.010 0 1.963 0.114 2.859 0.341 0.896 0.213 1.664 0.526 2.304 0.939l-1.301 2.645c-0.569-0.384-1.202-0.668-1.899-0.853-0.697-0.199-1.415-0.299-2.155-0.299-0.668 0-1.244 0.078-1.728 0.235-0.469 0.156-0.832 0.377-1.088 0.661-0.242 0.27-0.363 0.583-0.363 0.939s0.128 0.647 0.384 0.875c0.27 0.213 0.626 0.398 1.067 0.555 0.441 0.142 0.924 0.284 1.451 0.427s1.052 0.306 1.579 0.491c0.526 0.185 1.010 0.419 1.451 0.704s0.796 0.647 1.067 1.088c0.27 0.427 0.405 0.967 0.405 1.621 0 1.024-0.284 1.92-0.853 2.688-0.569 0.754-1.372 1.344-2.411 1.771-1.024 0.413-2.233 0.619-3.627 0.619zM15.107 23.619l2.987-14.933h3.477l-2.987 14.933h-3.477zM21.467 23.619l2.987-14.933h2.816l4.245 10.581-1.493-0.021 8.277-10.56h2.965l-2.965 14.933h-3.243l1.984-10.005h0.661l-6.592 8.427h-1.536l-3.52-8.448 0.64 0.064-1.984 9.963h-3.243zM41.202 23.619l2.987-14.933h6.037c1.863 0 3.3 0.412 4.309 1.237 1.024 0.811 1.536 1.948 1.536 3.413 0 1.252-0.292 2.347-0.875 3.285-0.583 0.924-1.422 1.636-2.517 2.133-1.081 0.498-2.368 0.747-3.861 0.747h-4.843l1.835-1.579-1.131 5.696h-3.477zM45.724 18.328l-1.216-1.643h4.459c1.138 0 2.020-0.256 2.645-0.768 0.64-0.526 0.96-1.287 0.96-2.283 0-0.725-0.242-1.259-0.725-1.6-0.484-0.356-1.166-0.533-2.048-0.533h-4.203l1.835-1.685-1.707 8.512zM55.978 23.619l2.987-14.933h3.477l-2.432 12.117h7.488l-0.576 2.816h-10.944zM70.384 23.619l1.216-6.144 0.384 2.176-4.395-10.965h3.456l3.349 8.384-2.091 0.021 6.763-8.405h3.563l-8.747 10.987 1.173-2.197-1.216 6.144h-3.456zM94.149 23.875c-1.152 0-2.226-0.185-3.221-0.555-0.981-0.384-1.835-0.924-2.56-1.621s-1.294-1.515-1.707-2.453c-0.398-0.939-0.597-1.97-0.597-3.093s0.199-2.155 0.597-3.093c0.412-0.939 0.981-1.756 1.707-2.453 0.74-0.697 1.6-1.23 2.581-1.6 0.981-0.384 2.055-0.576 3.221-0.576 1.294 0 2.46 0.228 3.499 0.683 1.052 0.441 1.934 1.095 2.645 1.963l-2.219 2.048c-0.512-0.583-1.081-1.017-1.707-1.301-0.626-0.299-1.308-0.448-2.048-0.448-0.697 0-1.337 0.114-1.92 0.341s-1.088 0.555-1.515 0.981-0.761 0.932-1.003 1.515c-0.228 0.583-0.341 1.23-0.341 1.941s0.114 1.358 0.341 1.941c0.242 0.583 0.576 1.088 1.003 1.515s0.932 0.754 1.515 0.981c0.583 0.227 1.223 0.341 1.92 0.341 0.74 0 1.422-0.142 2.048-0.427 0.626-0.299 1.195-0.747 1.707-1.344l2.219 2.048c-0.711 0.867-1.593 1.529-2.645 1.984-1.038 0.455-2.212 0.683-3.52 0.683zM112.248 8.686h3.456v14.933h-3.456v-14.933zM105.464 23.619h-3.456v-14.933h3.456v14.933zM112.504 17.496h-7.296v-2.923h7.296v2.923zM125.85 23.875c-1.18 0-2.276-0.192-3.285-0.576-0.996-0.384-1.863-0.924-2.603-1.621-0.725-0.697-1.294-1.515-1.707-2.453-0.398-0.939-0.597-1.963-0.597-3.072s0.199-2.133 0.597-3.072c0.412-0.939 0.988-1.756 1.728-2.453s1.607-1.237 2.603-1.621c0.996-0.384 2.076-0.576 3.243-0.576 1.18 0 2.261 0.192 3.243 0.576 0.995 0.384 1.856 0.924 2.581 1.621 0.739 0.697 1.315 1.515 1.728 2.453 0.412 0.924 0.619 1.948 0.619 3.072 0 1.109-0.206 2.14-0.619 3.093-0.412 0.939-0.988 1.756-1.728 2.453-0.725 0.683-1.586 1.216-2.581 1.6-0.981 0.384-2.055 0.576-3.221 0.576zM125.829 20.931c0.668 0 1.28-0.114 1.835-0.341 0.569-0.227 1.067-0.555 1.493-0.981s0.754-0.931 0.981-1.515c0.242-0.583 0.363-1.23 0.363-1.941s-0.121-1.358-0.363-1.941c-0.228-0.583-0.555-1.088-0.981-1.515-0.412-0.427-0.903-0.754-1.472-0.981s-1.188-0.341-1.856-0.341c-0.668 0-1.287 0.114-1.856 0.341-0.555 0.228-1.045 0.555-1.472 0.981s-0.761 0.932-1.003 1.515c-0.228 0.583-0.341 1.23-0.341 1.941 0 0.697 0.114 1.344 0.341 1.941 0.242 0.583 0.569 1.088 0.981 1.515 0.427 0.427 0.924 0.754 1.493 0.981s1.188 0.341 1.856 0.341zM143.104 23.875c-1.152 0-2.226-0.185-3.221-0.555-0.981-0.384-1.835-0.924-2.56-1.621s-1.294-1.515-1.707-2.453c-0.398-0.939-0.597-1.97-0.597-3.093s0.199-2.155 0.597-3.093c0.412-0.939 0.981-1.756 1.707-2.453 0.739-0.697 1.6-1.23 2.581-1.6 0.981-0.384 2.055-0.576 3.221-0.576 1.294 0 2.46 0.228 3.499 0.683 1.052 0.441 1.934 1.095 2.645 1.963l-2.219 2.048c-0.512-0.583-1.081-1.017-1.707-1.301-0.626-0.299-1.309-0.448-2.048-0.448-0.697 0-1.337 0.114-1.92 0.341s-1.088 0.555-1.515 0.981-0.761 0.932-1.003 1.515c-0.228 0.583-0.341 1.23-0.341 1.941s0.114 1.358 0.341 1.941c0.242 0.583 0.576 1.088 1.003 1.515s0.931 0.754 1.515 0.981c0.583 0.227 1.223 0.341 1.92 0.341 0.739 0 1.422-0.142 2.048-0.427 0.626-0.299 1.195-0.747 1.707-1.344l2.219 2.048c-0.711 0.867-1.593 1.529-2.645 1.984-1.038 0.455-2.212 0.683-3.52 0.683zM157.903 23.875c-1.179 0-2.275-0.192-3.285-0.576-0.995-0.384-1.862-0.924-2.602-1.621-0.725-0.697-1.294-1.515-1.707-2.453-0.398-0.939-0.597-1.963-0.597-3.072s0.199-2.133 0.597-3.072c0.412-0.939 0.988-1.756 1.728-2.453s1.607-1.237 2.602-1.621c0.997-0.384 2.077-0.576 3.243-0.576 1.181 0 2.261 0.192 3.243 0.576 0.997 0.384 1.856 0.924 2.581 1.621 0.741 0.697 1.317 1.515 1.728 2.453 0.413 0.924 0.619 1.948 0.619 3.072 0 1.109-0.206 2.14-0.619 3.093-0.411 0.939-0.987 1.756-1.728 2.453-0.725 0.683-1.585 1.216-2.581 1.6-0.981 0.384-2.054 0.576-3.221 0.576zM157.882 20.931c0.669 0 1.28-0.114 1.835-0.341 0.57-0.227 1.067-0.555 1.493-0.981s0.754-0.931 0.981-1.515c0.242-0.583 0.363-1.23 0.363-1.941s-0.12-1.358-0.363-1.941c-0.227-0.583-0.555-1.088-0.981-1.515-0.411-0.427-0.902-0.754-1.472-0.981-0.568-0.228-1.187-0.341-1.856-0.341-0.667 0-1.286 0.114-1.856 0.341-0.555 0.228-1.045 0.555-1.472 0.981s-0.76 0.932-1.003 1.515c-0.227 0.583-0.341 1.23-0.341 1.941 0 0.697 0.114 1.344 0.341 1.941 0.242 0.583 0.57 1.088 0.981 1.515 0.427 0.427 0.925 0.754 1.493 0.981 0.57 0.227 1.189 0.341 1.856 0.341zM168.011 23.619v-14.933h3.456v12.117h7.488v2.816h-10.944zM178.366 23.619l6.656-14.933h3.413l6.677 14.933h-3.627l-5.461-13.184h1.365l-5.483 13.184h-3.541zM181.694 20.419l0.917-2.624h7.68l0.939 2.624h-9.536zM198.365 23.619v-12.117h-4.779v-2.816h13.013v2.816h-4.779v12.117h-3.456zM210.999 14.702h7.189v2.688h-7.189v-2.688zM211.255 20.846h8.128v2.773h-11.563v-14.933h11.285v2.773h-7.851v9.387z"></path>
<path fill="#fcf1e0" style="fill: var(--color3, #fcf1e0)" d="M230.991 20.076l10.776-17.424 0.64-0.674 8.236 5.491 0.056 3.314 2.010 3.28-8.879 14.077-12.84-8.063z"></path>
<path fill="none" stroke="#fd9222" style="stroke: var(--color1, #fd9222)" stroke-linejoin="round" stroke-linecap="round" stroke-miterlimit="4" stroke-width="2.7429" d="M248.683 23.88l-14.185-8.864M238.409 8.599l14.185 8.864M237.678 25.864l11.736-19.25M254.225 14.789c-3.040-1.899-4.235-3.384-2.278-6.592l-9.626-6.015-11.736 19.25 14.187 8.864 9.454-15.507z"></path>
</symbol>
</defs>
</svg>
